<svg id="Layer_1" data-name="Layer 1" xmlns="http://www.w3.org/2000/svg" viewBox="0 0 219.53 218.87"><defs><style>.cls-1{fill:#45d3c0;}.cls-2{fill:#eff0f0;}.cls-3{fill:#e47030;}.cls-4{fill:#e09268;}</style></defs><path class="cls-1" d="M492.76,619.88c-59.35.47-109.78-48.22-109.71-109.25A109.73,109.73,0,0,1,493.31,401c59.54,0,109,49.53,109.27,109C602.83,571.13,552.33,620.45,492.76,619.88ZM492.41,609c53.3.52,99.56-43.6,99.2-99-.35-53.93-44.84-98.26-99.52-98-53.84.27-98.57,44.5-98.13,99.33C394.41,565.9,439.56,609.19,492.41,609Z" transform="translate(-383.05 -401.02)"/><path class="cls-2" d="M492.41,609c-52.85.2-98-43.09-98.45-97.64-.44-54.83,44.29-99.06,98.13-99.33,54.68-.27,99.17,44.06,99.52,98C592,565.39,545.71,609.51,492.41,609Zm-58.94-26,.52.5A94.35,94.35,0,0,0,579.5,546.59a93.36,93.36,0,0,0-26.25-107.41c-20.7-17.29-44.66-24.68-71.36-21.55-27.05,3.16-48.84,16.1-65.15,38a87.36,87.36,0,0,0-16.42,38.46c-3.25,19.94-1,39.17,8,57.41a7.43,7.43,0,0,0,2.11,4,1.07,1.07,0,0,0,.52,1h0l.4.65a.41.41,0,0,0,.16.29,1.45,1.45,0,0,0,.77,1.25l.48.92.62,1,1,1.46.37.52.08.14.53.81.06.06.43.57a.51.51,0,0,0,.17.29,1.31,1.31,0,0,0,.83,1.12l.06.05.36.46.08.11.65.82.39.52.49.62a.44.44,0,0,0,.17.27l.46.56h0a1.39,1.39,0,0,0,.93,1.12l.42.48.49.59a.43.43,0,0,0,.17.28,2.09,2.09,0,0,0,1.41,1.59l0,0,.42.5.06.08.43.43.06.06.47.51.45.48.47.47.1.1.45.48,1,.93.5.48.06.07.42.43.08.08.52.45.47.43.58.52,1,.93a1.75,1.75,0,0,0,1.07,1h0l.76.68.12.1.44.35.07.06.5.41Z" transform="translate(-383.05 -401.02)"/><path class="cls-3" d="M408.36,551.53c-9.06-18.24-11.29-37.47-8-57.41a87.36,87.36,0,0,1,16.42-38.46c16.31-21.93,38.1-34.87,65.15-38,26.7-3.13,50.66,4.26,71.36,21.55A93.36,93.36,0,0,1,579.5,546.59,94.28,94.28,0,0,1,434,583.54l-.52-.5,0,0a.42.42,0,0,0-.5-.41l-.07-.06c0-.33-.12-.46-.44-.35l-.12-.1c.05-.56-.31-.66-.76-.68h0c0-.7-.38-1-1.07-1l-1-.93a.56.56,0,0,0-.58-.52c-.15-.15-.31-.29-.47-.43a.42.42,0,0,0-.52-.45l-.08-.08c0-.32-.1-.46-.42-.43l-.06-.07c0-.34-.17-.49-.5-.48l-1-.93c0-.34-.1-.51-.45-.48l-.1-.1c0-.35-.14-.49-.47-.47l-.45-.48a.43.43,0,0,0-.47-.51l-.06-.06c0-.31-.12-.45-.43-.43l-.06-.08a.41.41,0,0,0-.42-.5l0,0c.12-1-.43-1.51-1.41-1.59a.43.43,0,0,1-.17-.28.48.48,0,0,0-.49-.59l-.42-.48c.12-.73-.18-1.11-.93-1.12h0c-.16-.18-.31-.37-.46-.56a.44.44,0,0,1-.17-.27.51.51,0,0,0-.49-.62L418,567c0-.47,0-.87-.65-.82l-.08-.11c.1-.32,0-.46-.36-.46l-.05-.05c.19-.73-.15-1.06-.84-1.12a.51.51,0,0,1-.17-.29.45.45,0,0,0-.43-.57l-.06-.06c.09-.44.09-.83-.53-.81l-.08-.15c.09-.33-.06-.48-.37-.51l-1-1.46c.09-.52,0-.93-.62-1-.16-.3-.32-.61-.47-.92.25-.74,0-1.15-.78-1.25a.41.41,0,0,1-.16-.29.54.54,0,0,0-.4-.65h0c.08-.47,0-.83-.52-1A4.28,4.28,0,0,0,408.36,551.53Zm84.3,41.56c45.66.13,82.86-36.67,83.1-82,.24-47.22-38.53-82.78-82-83.19a83.06,83.06,0,0,0-84.12,82.8C409.45,555.83,446.87,593,492.66,593.09Z" transform="translate(-383.05 -401.02)"/><path class="cls-4" d="M408.36,551.53a4.28,4.28,0,0,1,2.11,4A7.43,7.43,0,0,1,408.36,551.53Z" transform="translate(-383.05 -401.02)"/><path class="cls-4" d="M421.53,571.43c1,.08,1.53.54,1.41,1.59A2.09,2.09,0,0,1,421.53,571.43Z" transform="translate(-383.05 -401.02)"/><path class="cls-4" d="M416,564.43c.69.06,1,.39.84,1.12A1.3,1.3,0,0,1,416,564.43Z" transform="translate(-383.05 -401.02)"/><path class="cls-4" d="M411.56,557.41c.77.1,1,.51.78,1.25A1.44,1.44,0,0,1,411.56,557.41Z" transform="translate(-383.05 -401.02)"/><path class="cls-4" d="M419.52,569c.75,0,1.05.39.93,1.12A1.39,1.39,0,0,1,419.52,569Z" transform="translate(-383.05 -401.02)"/><path class="cls-4" d="M430.49,580.47c.69-.05,1.06.26,1.07,1A1.75,1.75,0,0,1,430.49,580.47Z" transform="translate(-383.05 -401.02)"/><path class="cls-4" d="M414.85,562.7c.62,0,.62.37.53.81Z" transform="translate(-383.05 -401.02)"/><path class="cls-4" d="M412.81,559.58c.64.07.71.48.62,1Z" transform="translate(-383.05 -401.02)"/><path class="cls-4" d="M417.37,566.17c.62,0,.68.35.65.82Z" transform="translate(-383.05 -401.02)"/><path class="cls-4" d="M410.47,555.48c.5.16.6.52.52,1A1.07,1.07,0,0,1,410.47,555.48Z" transform="translate(-383.05 -401.02)"/><path class="cls-4" d="M431.56,581.42c.45,0,.81.12.76.68Z" transform="translate(-383.05 -401.02)"/><path class="cls-4" d="M414.4,562c.31,0,.46.18.37.51Z" transform="translate(-383.05 -401.02)"/><path class="cls-4" d="M415.44,563.57a.45.45,0,0,1,.43.57Z" transform="translate(-383.05 -401.02)"/><path class="cls-4" d="M416.93,565.6c.32,0,.46.14.36.46Z" transform="translate(-383.05 -401.02)"/><path class="cls-4" d="M418.41,567.51a.51.51,0,0,1,.49.62Z" transform="translate(-383.05 -401.02)"/><path class="cls-4" d="M411,556.47a.54.54,0,0,1,.4.65C411.26,556.91,411.13,556.69,411,556.47Z" transform="translate(-383.05 -401.02)"/><path class="cls-4" d="M420.87,570.56a.48.48,0,0,1,.49.59Z" transform="translate(-383.05 -401.02)"/><path class="cls-4" d="M419.07,568.4c.15.19.3.38.46.56C419.37,568.78,419.22,568.59,419.07,568.4Z" transform="translate(-383.05 -401.02)"/><path class="cls-4" d="M423,573a.41.41,0,0,1,.42.5Z" transform="translate(-383.05 -401.02)"/><path class="cls-4" d="M423.44,573.62c.31,0,.45.12.43.43Z" transform="translate(-383.05 -401.02)"/><path class="cls-4" d="M423.93,574.11a.43.43,0,0,1,.47.51Z" transform="translate(-383.05 -401.02)"/><path class="cls-4" d="M424.85,575.1c.33,0,.51.12.47.47C425.17,575.41,425,575.26,424.85,575.1Z" transform="translate(-383.05 -401.02)"/><path class="cls-4" d="M425.42,575.67c.35,0,.48.14.45.48Z" transform="translate(-383.05 -401.02)"/><path class="cls-4" d="M426.87,577.08c.33,0,.51.14.5.48Z" transform="translate(-383.05 -401.02)"/><path class="cls-4" d="M427.43,577.63c.32,0,.46.11.42.43Z" transform="translate(-383.05 -401.02)"/><path class="cls-4" d="M427.93,578.14a.42.42,0,0,1,.52.45Z" transform="translate(-383.05 -401.02)"/><path class="cls-4" d="M428.92,579a.56.56,0,0,1,.58.52Z" transform="translate(-383.05 -401.02)"/><path class="cls-4" d="M432.44,582.2c.32-.11.46,0,.44.35Z" transform="translate(-383.05 -401.02)"/><path class="cls-4" d="M433,582.61a.42.42,0,0,1,.5.41Z" transform="translate(-383.05 -401.02)"/><path class="cls-4" d="M433.47,583l.52.5Z" transform="translate(-383.05 -401.02)"/><path class="cls-2" d="M492.66,593.09c-45.79-.14-83.21-37.26-83-82.39a83.06,83.06,0,0,1,84.12-82.8c43.45.41,82.22,36,82,83.19C575.52,556.42,538.32,593.22,492.66,593.09Zm-47.22-32.48.4.45.09.08.47.49.49.42.57.54.45.44.53.5,0,0,.53.5.49.43a5.13,5.13,0,0,0,3,2.57l.12-.07-.11.08a2,2,0,0,0,1.64,1.3.55.55,0,0,0,.29.19,2.82,2.82,0,0,0,2.08,1.49l.13-.09-.13.09a3.45,3.45,0,0,0,2.66,1.73l.75.32a1.31,1.31,0,0,0,1.24.72l.7.32a2,2,0,0,0,1.71.92.41.41,0,0,0,.28.15,2.61,2.61,0,0,0,2.32,1.08l.75.3a1.68,1.68,0,0,0,1.74.73l1.49.5a33.62,33.62,0,0,0,13.06,3.25l.92.16a6,6,0,0,0,4.05.46l1,0a34.71,34.71,0,0,0,14.42-.45l2-.33a3.45,3.45,0,0,0,3-.66l1-.21a21.17,21.17,0,0,0,9.19-3.59.61.61,0,0,0,.35-.17,2.59,2.59,0,0,0,2.16-1.24h0a3.53,3.53,0,0,0,2.47-1.58.56.56,0,0,0,.33-.23,1.78,1.78,0,0,0,1.68-1.27l.5-.39a3.73,3.73,0,0,0,2.47-2.13l1.47-1.47a3.61,3.61,0,0,0,2.15-2.46l.37-.52a1.11,1.11,0,0,0,.84-1.14.63.63,0,0,0,.19-.32,1.79,1.79,0,0,0,1-1.62.37.37,0,0,0,.15-.28,1.41,1.41,0,0,0,.71-1.27.58.58,0,0,0,.15-.36,1.21,1.21,0,0,0,.52-1.08.35.35,0,0,0,.12-.29,8.42,8.42,0,0,0,1.88-5.33l.24-1a36.78,36.78,0,0,0,1.54-17l-.22-1.94a2.06,2.06,0,0,0-.46-2.3l-.15-.74c-.38-3.34-1.19-6.5-3.42-9.13l-.13.08.12-.1a3.37,3.37,0,0,0-1.53-2.46,2.52,2.52,0,0,0-1.51-2l-.67-.84a11.18,11.18,0,0,0-4.82-4.71l-.9-.71c-.14-.59-.64-.68-1.11-.8l-.88-.52-.62-.4h0a22,22,0,0,0-9.16-4.66l-1.19-.46a43.85,43.85,0,0,0-12.76-4.84c-5-2.46-10.45-3.89-15.59-6-2.37-1-4.85-1.86-6.59-3.92-5.32-6.3-2.58-15.68,5.66-18.34,10.68-3.46,20.71-1.68,29.82,4.91,2.32,1.68,4.48,3.61,6.83,5.52l18.92-19.48a32.24,32.24,0,0,0-7.72-7.62c-14.92-11.48-31.8-14.66-50.06-11.33-16.71,3.06-32.71,15.89-34.54,36.1-1,10.68,1,20.5,8.07,29,4.72,5.66,10.89,9,17.53,11.53,4.09,1.59,8.08,3.52,12.44,4.38a2.23,2.23,0,0,0,1.35,1l18.41,6.77a.57.57,0,0,0,.34.18c2.67,2.17,5.06,4.44,5.28,8.27a23.49,23.49,0,0,1-1.26,8.54h0a1.23,1.23,0,0,0-.82,1.12.49.49,0,0,0-.2.3l-.5.53h0l-.49.42-.05.06-.54.43-.7.41a1,1,0,0,0-1.15.71h0a24.12,24.12,0,0,0-5.37,1.82l-1,.19-11.15,0-1.46-.23a126.62,126.62,0,0,1-13.87-5.82l-.55-.37a1.61,1.61,0,0,0-1.47-1.07h0a1.11,1.11,0,0,0-1.1-.86l-1.38-1.13a6,6,0,0,0-3-2.65.42.42,0,0,0-.18-.25c-.81-1.46-1.61-1.45-2.41,0l-1.21,1.28-.5.48-.08.06-.42.45-.05.06-.51.48-.93,1-.5.54,0,0-.53.5-.92,1-.5.53.09.11-.1-.11-.53.51-3,2.93-.54.57-2.93,3a3.63,3.63,0,0,0-2,2.05l-.46.47-.56.53-1,.95c-1.08.52-1.26,1.1-.12,1.78l.06.05.45.44Z" transform="translate(-383.05 -401.02)"/><path class="cls-1" d="M485.36,522.53c-4.36-.86-8.35-2.79-12.44-4.38-6.64-2.57-12.81-5.87-17.53-11.53-7.07-8.51-9-18.33-8.07-29,1.83-20.21,17.83-33,34.54-36.1,18.26-3.33,35.14-.15,50.06,11.33a32.24,32.24,0,0,1,7.72,7.62l-18.92,19.48c-2.35-1.91-4.51-3.84-6.83-5.52-9.11-6.59-19.14-8.37-29.82-4.91-8.24,2.66-11,12-5.66,18.34,1.74,2.06,4.22,2.93,6.59,3.92,5.14,2.15,10.57,3.58,15.59,6-.71,1.58-2.13,2.77-2.56,4.52a.39.39,0,0,0-.18.34,1.17,1.17,0,0,0-.75,1.15l-1.61,2.56a.83.83,0,0,0-.47.89l-.63.94-.35.58-2,3.1a.36.36,0,0,0-.35.48l-.23.47a2.4,2.4,0,0,0-1.13,1.86.37.37,0,0,0-.27.27c-.55.23-.6.74-.7,1.23l-.58.95A19.27,19.27,0,0,0,485.36,522.53Z" transform="translate(-383.05 -401.02)"/><path class="cls-4" d="M489.14,580.72c4.81-.16,9.59-1.09,14.42-.45A34.71,34.71,0,0,1,489.14,580.72Z" transform="translate(-383.05 -401.02)"/><path class="cls-4" d="M470.11,576.81c2.72,0,5.11,1.38,7.73,1.86,1.78.32,3.86-.21,5.33,1.39A33.62,33.62,0,0,1,470.11,576.81Z" transform="translate(-383.05 -401.02)"/><path class="cls-4" d="M509.52,579.07a45.28,45.28,0,0,1,9.19-3.59A21.17,21.17,0,0,1,509.52,579.07Z" transform="translate(-383.05 -401.02)"/><path class="cls-4" d="M536.34,557.65a11.36,11.36,0,0,1,1.88-5.33A8.42,8.42,0,0,1,536.34,557.65Z" transform="translate(-383.05 -401.02)"/><path class="cls-4" d="M484.09,580.22c1.4-.28,2.84-.85,4.05.46A6,6,0,0,1,484.09,580.22Z" transform="translate(-383.05 -401.02)"/><path class="cls-4" d="M449.48,564.48a3.78,3.78,0,0,1,3,2.57A5.13,5.13,0,0,1,449.48,564.48Z" transform="translate(-383.05 -401.02)"/><path class="cls-4" d="M505.59,579.94c.85-.85,1.78-1.38,3-.66A3.45,3.45,0,0,1,505.59,579.94Z" transform="translate(-383.05 -401.02)"/><path class="cls-4" d="M456.47,570a2.48,2.48,0,0,1,2.66,1.73A3.45,3.45,0,0,1,456.47,570Z" transform="translate(-383.05 -401.02)"/><path class="cls-4" d="M526.22,570.59a2.83,2.83,0,0,1,2.47-2.13A3.73,3.73,0,0,1,526.22,570.59Z" transform="translate(-383.05 -401.02)"/><path class="cls-4" d="M530.16,567a2.79,2.79,0,0,1,2.15-2.46A3.61,3.61,0,0,1,530.16,567Z" transform="translate(-383.05 -401.02)"/><path class="cls-4" d="M463.81,574.2a1.74,1.74,0,0,1,2.32,1.08A2.61,2.61,0,0,1,463.81,574.2Z" transform="translate(-383.05 -401.02)"/><path class="cls-4" d="M454.39,568.55a1.82,1.82,0,0,1,2.08,1.49A2.82,2.82,0,0,1,454.39,568.55Z" transform="translate(-383.05 -401.02)"/><path class="cls-4" d="M519.06,575.31a1.83,1.83,0,0,1,2.16-1.24A2.59,2.59,0,0,1,519.06,575.31Z" transform="translate(-383.05 -401.02)"/><path class="cls-4" d="M521.24,574.06a2.9,2.9,0,0,1,2.47-1.58A3.53,3.53,0,0,1,521.24,574.06Z" transform="translate(-383.05 -401.02)"/><path class="cls-4" d="M524,572.25a1.45,1.45,0,0,1,1.67-1.27A1.76,1.76,0,0,1,524,572.25Z" transform="translate(-383.05 -401.02)"/><path class="cls-4" d="M452.46,567.06c1-.18,1.48.38,1.64,1.3A2,2,0,0,1,452.46,567.06Z" transform="translate(-383.05 -401.02)"/><path class="cls-4" d="M445,558.27l-.12,1.78C443.74,559.37,443.92,558.79,445,558.27Z" transform="translate(-383.05 -401.02)"/><path class="cls-4" d="M466.88,575.58c.77-.19,1.47-.24,1.74.73A1.68,1.68,0,0,1,466.88,575.58Z" transform="translate(-383.05 -401.02)"/><path class="cls-4" d="M533.71,562.55a1.33,1.33,0,0,1,1-1.62A1.79,1.79,0,0,1,533.71,562.55Z" transform="translate(-383.05 -401.02)"/><path class="cls-4" d="M471.64,546.86a1.29,1.29,0,0,1-1.47-1.07A1.61,1.61,0,0,1,471.64,546.86Z" transform="translate(-383.05 -401.02)"/><path class="cls-4" d="M459.88,572.09a.87.87,0,0,1,1.24.72A1.31,1.31,0,0,1,459.88,572.09Z" transform="translate(-383.05 -401.02)"/><path class="cls-3" d="M540,534.39c-.08-.64-.15-1.29-.22-1.94a2.06,2.06,0,0,0-.46-2.3l-.15-.74c-.38-3.34-1.19-6.5-3.42-9.13l-.13.08.12-.1a3.41,3.41,0,0,0-1.53-2.47,2,2,0,0,0,1.11,2.31,2,2,0,0,1-1.11-2.3h0a2.52,2.52,0,0,0-1.51-2l-.67-.84a11.18,11.18,0,0,0-4.82-4.71l-.9-.71c-.51-.07-1-.14-1.11-.8l-.88-.52a.48.48,0,0,1-.62-.4h0a22,22,0,0,0-9.16-4.66l-1.19-.46a43.85,43.85,0,0,0-12.76-4.84c-.71,1.58-2.13,2.77-2.56,4.52a.39.39,0,0,0-.18.34c.22.69,0,1.1-.75,1.15l-1.61,2.56a.7.7,0,0,1-.47.89l-.63.94a.45.45,0,0,1-.35.58l-2,3.1-.35.48c-.08.16-.15.32-.23.47,0,.84-.13,1.62-1.13,1.86a.37.37,0,0,0-.27.27c0,.53.08,1.13-.7,1.23-.19.32-.38.64-.58.95a19.27,19.27,0,0,0-3.44,5.38,2.23,2.23,0,0,0,1.35,1l18.41,6.77a.57.57,0,0,0,.34.18c2.67,2.17,5.06,4.44,5.28,8.27a23.41,23.41,0,0,1-1.26,8.53h0c.21-.17.49-.31.69-.48-.2.17-.48.31-.69.48a.85.85,0,0,1-.82,1.11.49.49,0,0,0-.2.3.47.47,0,0,1-.5.53h0c0,.32-.17.46-.49.42l-.05.06c0,.35-.2.48-.54.43l-.7.41a.89.89,0,0,1-1.14.71h0a24,24,0,0,0-5.36,1.82l-1,.19-11.15,0-1.46-.23a126.62,126.62,0,0,1-13.87-5.82l-.55-.37a1.29,1.29,0,0,1-1.47-1.06h0a1.11,1.11,0,0,0-1.1-.86l-1.38-1.13a6,6,0,0,0-3-2.65.42.42,0,0,0-.18-.25c-.81-1.46-1.61-1.45-2.41,0l-1.21,1.28c0,.33-.16.5-.5.48l-.08.06q.06.48-.42.45l-.05.06a.43.43,0,0,1-.51.48l-.93,1a.47.47,0,0,1-.5.54l0,0a.47.47,0,0,1-.53.51l-.92,1a.52.52,0,0,1-.5.53l.09.11-.1-.11a.52.52,0,0,1-.53.51l-3,2.93a.58.58,0,0,1-.54.57l-2.93,3a3.63,3.63,0,0,0-2,2.05l-.46.47-.56.53-1,.95-.12,1.78.06.05c.32,0,.47.13.45.44l.05.07c.31,0,.45.13.4.45l.09.08c.34,0,.48.16.47.49l.49.42a.53.53,0,0,1,.57.54l.45.44a.5.5,0,0,1,.54.5v0a.49.49,0,0,1,.53.5l.49.43a3.78,3.78,0,0,1,3,2.57l.12-.07-.11.08c1-.18,1.48.38,1.64,1.3a.55.55,0,0,0,.29.19,1.82,1.82,0,0,1,2.08,1.49l.13-.09-.13.09a2.48,2.48,0,0,1,2.66,1.73l.75.32a.87.87,0,0,1,1.24.72l.7.32a1.6,1.6,0,0,1,1.71.92.41.41,0,0,0,.28.15,1.74,1.74,0,0,1,2.32,1.08l.75.3c.77-.19,1.47-.24,1.74.73l1.49.5c2.72,0,5.11,1.38,7.73,1.86,1.78.32,3.86-.21,5.33,1.39l.92.16c1.4-.28,2.84-.85,4.05.46l1,0c4.81-.16,9.59-1.09,14.42-.45l2-.33c.85-.85,1.78-1.38,3-.66l1-.21a45.28,45.28,0,0,1,9.19-3.59.61.61,0,0,0,.35-.17,1.83,1.83,0,0,1,2.16-1.24h0a2.9,2.9,0,0,1,2.47-1.58.56.56,0,0,0,.33-.23,1.46,1.46,0,0,1,1.68-1.27l.5-.39a2.83,2.83,0,0,1,2.47-2.13l1.47-1.47a2.79,2.79,0,0,1,2.15-2.46l.37-.52a.91.91,0,0,1,.84-1.14.63.63,0,0,0,.19-.32,1.33,1.33,0,0,1,1-1.62.37.37,0,0,0,.15-.28.85.85,0,0,1,.71-1.27.58.58,0,0,0,.15-.36.83.83,0,0,1,.52-1.08.35.35,0,0,0,.12-.29,11.36,11.36,0,0,1,1.88-5.33l.24-1A36.78,36.78,0,0,0,540,534.39Z" transform="translate(-383.05 -401.02)"/><path class="cls-4" d="M532.68,564a.91.91,0,0,1,.84-1.14A1.11,1.11,0,0,1,532.68,564Z" transform="translate(-383.05 -401.02)"/><path class="cls-4" d="M534.84,560.65a.85.85,0,0,1,.71-1.27A1.41,1.41,0,0,1,534.84,560.65Z" transform="translate(-383.05 -401.02)"/><path class="cls-4" d="M506.15,550.58a.9.9,0,0,1-1.15.71A1,1,0,0,1,506.15,550.58Z" transform="translate(-383.05 -401.02)"/><path class="cls-4" d="M461.82,573.13a1.6,1.6,0,0,1,1.71.92A2,2,0,0,1,461.82,573.13Z" transform="translate(-383.05 -401.02)"/><path class="cls-4" d="M509.48,547.3a.85.85,0,0,1-.82,1.12A1.23,1.23,0,0,1,509.48,547.3Z" transform="translate(-383.05 -401.02)"/><path class="cls-4" d="M526.31,509.5c-.51-.07-1-.14-1.11-.8C525.67,508.82,526.17,508.91,526.31,509.5Z" transform="translate(-383.05 -401.02)"/><path class="cls-4" d="M535.7,559a.83.83,0,0,1,.52-1.08A1.21,1.21,0,0,1,535.7,559Z" transform="translate(-383.05 -401.02)"/><path class="cls-4" d="M445.93,561.14c.34,0,.48.16.47.49Z" transform="translate(-383.05 -401.02)"/><path class="cls-4" d="M446.89,562.05a.53.53,0,0,1,.57.54Z" transform="translate(-383.05 -401.02)"/><path class="cls-4" d="M447.91,563a.5.5,0,0,1,.54.5Z" transform="translate(-383.05 -401.02)"/><path class="cls-4" d="M448.46,563.55a.49.49,0,0,1,.53.5Z" transform="translate(-383.05 -401.02)"/><path class="cls-4" d="M446.52,556.79l-.56.53Z" transform="translate(-383.05 -401.02)"/><path class="cls-4" d="M524.32,508.18a.48.48,0,0,1-.62-.4Z" transform="translate(-383.05 -401.02)"/><path class="cls-4" d="M452.47,550.72a.58.58,0,0,1-.54.57Z" transform="translate(-383.05 -401.02)"/><path class="cls-4" d="M460.94,542.2c0,.33-.16.5-.5.48Z" transform="translate(-383.05 -401.02)"/><path class="cls-4" d="M460.36,542.74q.06.48-.42.45Z" transform="translate(-383.05 -401.02)"/><path class="cls-4" d="M459.89,543.25a.43.43,0,0,1-.51.48Z" transform="translate(-383.05 -401.02)"/><path class="cls-4" d="M507.93,549.26c0,.32-.17.46-.49.42Z" transform="translate(-383.05 -401.02)"/><path class="cls-4" d="M458.45,544.7a.47.47,0,0,1-.5.54Z" transform="translate(-383.05 -401.02)"/><path class="cls-4" d="M507.39,549.74c0,.35-.2.48-.54.43Z" transform="translate(-383.05 -401.02)"/><path class="cls-4" d="M508.46,548.72a.47.47,0,0,1-.5.53C508.13,549.07,508.29,548.89,508.46,548.72Z" transform="translate(-383.05 -401.02)"/><path class="cls-4" d="M457.93,545.26a.47.47,0,0,1-.53.51Z" transform="translate(-383.05 -401.02)"/><path class="cls-4" d="M456,547.28a.52.52,0,0,1-.53.51Z" transform="translate(-383.05 -401.02)"/><path class="cls-4" d="M456.48,546.75a.52.52,0,0,1-.5.53C456.14,547.1,456.31,546.92,456.48,546.75Z" transform="translate(-383.05 -401.02)"/><path class="cls-4" d="M444.94,560.1c.32,0,.47.13.45.44Z" transform="translate(-383.05 -401.02)"/><path class="cls-4" d="M445.44,560.61c.31,0,.45.13.4.45Z" transform="translate(-383.05 -401.02)"/><path class="cls-4" d="M491.48,512.84c0,.84-.13,1.62-1.13,1.86A2.4,2.4,0,0,1,491.48,512.84Z" transform="translate(-383.05 -401.02)"/><path class="cls-4" d="M497.85,502.67c.22.69,0,1.1-.75,1.15A1.17,1.17,0,0,1,497.85,502.67Z" transform="translate(-383.05 -401.02)"/><path class="cls-4" d="M490.08,515c0,.53.08,1.13-.7,1.23C489.48,515.71,489.53,515.2,490.08,515Z" transform="translate(-383.05 -401.02)"/><path class="cls-4" d="M495.49,506.38a.7.7,0,0,1-.47.89A.83.83,0,0,1,495.49,506.38Z" transform="translate(-383.05 -401.02)"/><path class="cls-4" d="M492.06,511.89l-.35.48A.36.36,0,0,1,492.06,511.89Z" transform="translate(-383.05 -401.02)"/><path class="cls-4" d="M494.39,508.21a.45.45,0,0,1-.35.58Z" transform="translate(-383.05 -401.02)"/></svg>